<?xml version="1.0" encoding="utf-8"?>
<svg id="Logo" x="0px" y="0px" width="220px" height="50px" viewBox="0 0 220 50" xmlns="http://www.w3.org/2000/svg">
  <g transform="matrix(1.069491, 0, 0, 1.062613, -8.924182, -1.488655)">
    <ellipse id="Ground_Shadow" fill="#D0D2D3" cx="31.845" cy="41.046" rx="11.233" ry="1.5"/>
    <path id="Tomato" fill="#EA402B" d="M28.339,9.064c-3.335,0-6.428,1.029-8.985,2.782c-0.158,0.539-0.298,1.108-0.388,1.742&#10;&#9;&#9;c-0.519,2.913-2.305,4.805-5.577,5.962c-0.618,1.699-0.973,3.525-0.973,5.438c0,8.795,7.129,15.924,15.923,15.924&#10;&#9;&#9;s15.924-7.129,15.924-15.924C44.263,16.193,37.133,9.064,28.339,9.064z"/>
    <path id="Highlight" fill="#FFFFFF" d="M32.781,12.341c-2.771-0.871-5.471-0.896-7.725-0.054c-0.324,0.122-0.495,0.419-0.434,0.758&#10;&#9;&#9;c0.065,0.361,0.364,0.623,0.71,0.623c0.001,0,0.001,0,0.001,0c0.087,0,0.176-0.017,0.263-0.049&#10;&#9;&#9;c1.919-0.717,4.283-0.689,6.669,0.062c0.076,0.024,0.153,0.036,0.229,0.036c0.416,0,0.693-0.339,0.742-0.659&#10;&#9;&#9;C33.288,12.725,33.108,12.443,32.781,12.341z"/>
    <path id="Shadow" fill="#D0D2D3" d="M41.954,16.387c2.736,13.434-13.291,24.17-22.947,21.155c0.637,0.459,1.315,0.877,2.034,1.248&#10;&#9;&#9;c7.817,4.027,17.42,0.955,21.448-6.863C45.117,26.823,44.718,20.963,41.954,16.387z"/>
    <g id="Needle">
      <path id="Shadow_1_" fill="#D0D2D3" d="M31.067,28.597c-1.17,1.17-3.07,1.17-4.243-0.002s-1.173-3.072-0.001-4.245&#10;&#9;&#9;&#9;c1.174-1.172,9.121-4.876,9.121-4.876S32.241,27.423,31.067,28.597z"/>
      <path id="Needle_1_" fill="#FFFFFF" d="M30.067,27.597c-1.17,1.17-3.07,1.17-4.243-0.002s-1.173-3.073-0.001-4.245&#10;&#9;&#9;&#9;c1.174-1.172,9.121-4.876,9.121-4.876S31.241,26.423,30.067,27.597z"/>
      <circle id="Center" fill="#EA402B" cx="28.34" cy="24.988" r="1.5"/>
    </g>
    <g id="pomodorize.me">
      <path fill-rule="evenodd" clip-rule="evenodd" fill="#4C4747" d="M53.761,35.091c0-3.307,0-6.612,0-9.919&#10;&#9;&#9;&#9;c0.05-0.258,0.092-0.518,0.151-0.773c0.396-1.681,1.37-2.902,2.934-3.639c0.805-0.377,1.657-0.541,2.543-0.561&#10;&#9;&#9;&#9;c1.266-0.032,2.464,0.217,3.545,0.893c1.479,0.925,2.337,2.264,2.522,3.996c0.119,1.108-0.044,2.192-0.521,3.213&#10;&#9;&#9;&#9;s-1.205,1.807-2.22,2.311c-1.077,0.533-2.212,0.625-3.378,0.395c-1.269-0.248-2.245-0.914-2.872-2.062&#10;&#9;&#9;&#9;c-0.027-0.053-0.065-0.098-0.126-0.184c0,0.141,0,0.23,0,0.321c0,1.853,0,3.702-0.001,5.552c0,0.125,0,0.25-0.016,0.373&#10;&#9;&#9;&#9;c-0.069,0.545-0.47,0.949-1.014,1.033c-0.628,0.094-1.194-0.164-1.427-0.656C53.839,35.288,53.801,35.19,53.761,35.091z&#10;&#9;&#9;&#9; M59.843,28.806c0.908-0.032,1.857-0.508,2.426-1.569c0.553-1.036,0.527-2.109,0.012-3.16c-0.323-0.661-0.854-1.119-1.532-1.369&#10;&#9;&#9;&#9;c-0.946-0.348-1.881-0.279-2.765,0.227c-0.596,0.342-1.004,0.854-1.231,1.496c-0.284,0.803-0.274,1.62-0.004,2.427&#10;&#9;&#9;&#9;c0.148,0.443,0.396,0.836,0.742,1.152C58.075,28.544,58.773,28.804,59.843,28.806z"/>
      <path fill-rule="evenodd" clip-rule="evenodd" fill="#4C4747" d="M78.999,25.235c0,0.366,0,0.733,0,1.099&#10;&#9;&#9;&#9;c-0.018,0.071-0.04,0.143-0.052,0.216c-0.291,1.963-1.332,3.373-3.148,4.176c-1.408,0.621-2.877,0.693-4.371,0.365&#10;&#9;&#9;&#9;c-1.239-0.273-2.299-0.863-3.103-1.857c-1.021-1.264-1.344-2.726-1.113-4.31c0.274-1.896,1.295-3.276,3.034-4.067&#10;&#9;&#9;&#9;c1.694-0.769,3.453-0.795,5.2-0.176c1.573,0.558,2.68,1.634,3.232,3.23C78.826,24.337,78.894,24.792,78.999,25.235z&#10;&#9;&#9;&#9; M69.958,25.793c0.063,0.333,0.103,0.673,0.192,0.998c0.594,2.151,3.332,2.933,4.969,1.411c0.822-0.766,1.105-1.74,0.995-2.851&#10;&#9;&#9;&#9;c-0.193-1.927-2.013-3.191-3.879-2.678C70.877,23.044,69.986,24.281,69.958,25.793z"/>
      <path fill-rule="evenodd" clip-rule="evenodd" fill="#4C4747" d="M104.616,20.227c1.313,0.052,2.55,0.333,3.634,1.096&#10;&#9;&#9;&#9;c1.736,1.223,2.438,2.943,2.26,5.018c-0.219,2.561-2.031,4.314-4.436,4.785c-1.473,0.289-2.918,0.197-4.293-0.439&#10;&#9;&#9;&#9;c-1.731-0.799-2.744-2.16-3.025-4.045c-0.193-1.298,0.002-2.538,0.673-3.678c0.808-1.368,2.032-2.169,3.561-2.512&#10;&#9;&#9;&#9;C103.52,20.333,104.072,20.3,104.616,20.227z M104.602,22.567c-1.763,0.006-3.062,1.367-3.062,3.211&#10;&#9;&#9;&#9;c0,1.836,1.312,3.203,3.072,3.203c1.755-0.002,3.083-1.381,3.085-3.199C107.699,23.943,106.37,22.562,104.602,22.567z"/>
      <path fill-rule="evenodd" clip-rule="evenodd" fill="#4C4747" d="M132.013,20.227c1.315,0.052,2.552,0.333,3.635,1.096&#10;&#9;&#9;&#9;c1.736,1.223,2.438,2.943,2.261,5.018c-0.22,2.561-2.032,4.314-4.437,4.785c-1.473,0.289-2.918,0.197-4.293-0.439&#10;&#9;&#9;&#9;c-1.731-0.799-2.742-2.16-3.024-4.045c-0.194-1.298,0.001-2.538,0.673-3.678c0.808-1.368,2.032-2.169,3.561-2.512&#10;&#9;&#9;&#9;C130.919,20.333,131.472,20.3,132.013,20.227z M132.001,22.567c-1.764,0.006-3.062,1.367-3.062,3.211&#10;&#9;&#9;&#9;c0,1.836,1.312,3.203,3.07,3.203c1.755-0.002,3.085-1.381,3.086-3.199C135.098,23.943,133.768,22.562,132.001,22.567z"/>
      <path fill-rule="evenodd" clip-rule="evenodd" fill="#4C4747" d="M171.251,31.349c-0.464,0-0.927,0-1.391,0&#10;&#9;&#9;&#9;c-0.063-0.016-0.125-0.041-0.188-0.047c-0.654-0.064-1.287-0.211-1.896-0.459c-1.211-0.496-2.168-1.287-2.771-2.466&#10;&#9;&#9;&#9;c-0.547-1.065-0.678-2.201-0.509-3.375c0.241-1.685,1.098-2.971,2.562-3.836c1.196-0.708,2.509-0.898,3.872-0.781&#10;&#9;&#9;&#9;c1.062,0.09,2.062,0.387,2.928,1.035c0.793,0.595,1.339,1.353,1.406,2.375c0.087,1.318-0.616,2.396-1.897,2.891&#10;&#9;&#9;&#9;c-1.556,0.602-3.138,0.564-4.722,0.119c-0.457-0.127-0.894-0.319-1.353-0.486c0.18,1.033,0.774,1.755,1.7,2.193&#10;&#9;&#9;&#9;c1.127,0.531,2.302,0.537,3.485,0.207c0.365-0.101,0.712-0.262,1.079-0.359c0.713-0.188,1.341,0.164,1.494,0.809&#10;&#9;&#9;&#9;c0.111,0.467-0.184,1.066-0.665,1.365c-0.544,0.338-1.15,0.498-1.768,0.613C172.166,31.233,171.708,31.282,171.251,31.349z&#10;&#9;&#9;&#9; M167.423,24.919c0.893,0.38,1.812,0.665,2.795,0.66c0.632-0.004,1.247-0.109,1.797-0.461c0.855-0.549,0.834-1.527-0.047-2.029&#10;&#9;&#9;&#9;c-0.478-0.273-0.998-0.354-1.54-0.396C168.962,22.583,167.743,23.72,167.423,24.919z"/>
      <path fill-rule="evenodd" clip-rule="evenodd" fill="#4C4747" d="M207.657,31.349c-0.464,0-0.927,0-1.391,0&#10;&#9;&#9;&#9;c-0.063-0.016-0.125-0.041-0.188-0.047c-0.654-0.064-1.287-0.211-1.896-0.459c-1.211-0.496-2.167-1.287-2.771-2.466&#10;&#9;&#9;&#9;c-0.547-1.065-0.678-2.201-0.509-3.375c0.24-1.685,1.098-2.971,2.562-3.836c1.196-0.708,2.509-0.898,3.872-0.781&#10;&#9;&#9;&#9;c1.062,0.09,2.062,0.387,2.927,1.035c0.794,0.595,1.34,1.353,1.407,2.375c0.087,1.318-0.616,2.396-1.897,2.891&#10;&#9;&#9;&#9;c-1.555,0.602-3.139,0.564-4.722,0.119c-0.457-0.127-0.894-0.319-1.353-0.486c0.18,1.033,0.774,1.755,1.701,2.193&#10;&#9;&#9;&#9;c1.126,0.531,2.301,0.537,3.484,0.207c0.365-0.101,0.712-0.262,1.08-0.359c0.712-0.188,1.34,0.164,1.493,0.809&#10;&#9;&#9;&#9;c0.11,0.467-0.184,1.066-0.665,1.365c-0.544,0.338-1.149,0.498-1.768,0.613C208.572,31.233,208.113,31.282,207.657,31.349z&#10;&#9;&#9;&#9; M203.83,24.919c0.893,0.38,1.811,0.665,2.793,0.66c0.633-0.004,1.248-0.109,1.798-0.461c0.856-0.549,0.834-1.527-0.046-2.029&#10;&#9;&#9;&#9;c-0.479-0.273-1-0.354-1.541-0.396C205.368,22.583,204.148,23.72,203.83,24.919z"/>
      <path fill-rule="evenodd" clip-rule="evenodd" fill="#4C4747" d="M157.487,20.346c0.644,0,1.286,0,1.93,0&#10;&#9;&#9;&#9;c0.302,0.032,0.603,0.061,0.904,0.098c0.614,0.076,1.222,0.176,1.787,0.446c0.757,0.362,0.923,0.936,0.447,1.623&#10;&#9;&#9;&#9;c-0.185,0.27-0.42,0.506-0.633,0.756c-1.313,1.544-2.628,3.087-3.942,4.63c-0.246,0.291-0.491,0.585-0.754,0.895&#10;&#9;&#9;&#9;c0.121,0.023,0.201,0.043,0.283,0.051c1.343,0.137,2.682,0.091,4.015-0.121c0.537-0.086,1.045-0.061,1.394,0.439&#10;&#9;&#9;&#9;c0.497,0.713,0.086,1.65-0.838,1.807c-0.834,0.139-1.682,0.213-2.525,0.271c-1.344,0.096-2.688,0.049-4.011-0.223&#10;&#9;&#9;&#9;c-0.729-0.15-1.471-0.326-1.865-1.076c0-0.133,0-0.264,0-0.396c0.208-0.331,0.409-0.665,0.625-0.989&#10;&#9;&#9;&#9;c0.077-0.113,0.192-0.203,0.285-0.308c1.443-1.638,2.887-3.276,4.329-4.916c0.148-0.168,0.293-0.341,0.469-0.545&#10;&#9;&#9;&#9;c-0.35-0.044-0.648-0.095-0.949-0.116c-0.977-0.072-1.94,0.045-2.899,0.216c-0.688,0.123-1.245-0.232-1.361-0.858&#10;&#9;&#9;&#9;c-0.136-0.718,0.203-1.244,0.917-1.382c0.467-0.091,0.942-0.146,1.416-0.208C156.833,20.4,157.161,20.376,157.487,20.346z"/>
      <path fill-rule="evenodd" clip-rule="evenodd" fill="#4C4747" d="M150.234,16.594c0.227,0.111,0.476,0.193,0.678,0.339&#10;&#9;&#9;&#9;c0.521,0.375,0.691,1.035,0.472,1.67c-0.198,0.576-0.757,0.954-1.404,0.95c-0.663-0.003-1.204-0.384-1.404-0.983&#10;&#9;&#9;&#9;c-0.025-0.078-0.059-0.151-0.089-0.228c0-0.166,0-0.333,0-0.5c0.06-0.151,0.107-0.308,0.179-0.453&#10;&#9;&#9;&#9;c0.221-0.444,0.623-0.65,1.069-0.796C149.901,16.594,150.068,16.594,150.234,16.594z"/>
      <path fill-rule="evenodd" clip-rule="evenodd" fill="#4C4747" d="M148.537,24.823c0-1.015-0.007-2.032,0.002-3.046&#10;&#9;&#9;&#9;c0.007-0.658,0.36-1.11,0.957-1.266c0.635-0.166,1.331,0.075,1.605,0.605c0.115,0.226,0.172,0.506,0.175,0.763&#10;&#9;&#9;&#9;c0.015,1.582,0,3.162,0.012,4.743c0.003,0.457,0.046,0.914,0.1,1.365c0.039,0.328,0.212,0.56,0.565,0.646&#10;&#9;&#9;&#9;c0.15,0.036,0.312,0.141,0.406,0.263c0.325,0.412,0.359,0.883,0.18,1.365c-0.174,0.469-0.536,0.73-1.022,0.75&#10;&#9;&#9;&#9;c-1.444,0.057-2.522-0.557-2.832-2.107c-0.095-0.469-0.13-0.955-0.142-1.436C148.52,26.587,148.537,25.704,148.537,24.823z"/>
      <path fill-rule="evenodd" clip-rule="evenodd" fill="#4C4747" d="M145.041,20.17c0.315,0,0.629,0,0.945,0&#10;&#9;&#9;&#9;c0.068,0.025,0.137,0.052,0.209,0.076c0.56,0.193,0.905,0.787,0.825,1.426c-0.079,0.645-0.503,1.078-1.114,1.139&#10;&#9;&#9;&#9;c-0.173,0.017-0.346,0.029-0.52,0.038c-1.312,0.071-2.25,0.849-2.482,2.147c-0.107,0.597-0.107,1.216-0.121,1.826&#10;&#9;&#9;&#9;c-0.022,0.984-0.006,1.969-0.024,2.953c-0.009,0.479-0.282,0.797-0.707,0.99c-0.126,0.057-0.261,0.098-0.392,0.145&#10;&#9;&#9;&#9;c-0.182,0-0.364,0-0.547,0c-0.042-0.02-0.084-0.043-0.127-0.055c-0.445-0.135-0.77-0.395-0.896-0.86&#10;&#9;&#9;&#9;c-0.031-0.106-0.047-0.218-0.07-0.327c0-1.277,0-2.553,0-3.83c0.014-0.104,0.029-0.209,0.041-0.314&#10;&#9;&#9;&#9;c0.055-0.509,0.07-1.027,0.171-1.526c0.383-1.897,1.485-3.136,3.399-3.583C144.094,20.305,144.571,20.249,145.041,20.17z"/>
      <path fill-rule="evenodd" clip-rule="evenodd" fill="#4C4747" d="M112.261,25.856c0-0.016,0-0.033,0-0.05&#10;&#9;&#9;&#9;c0.014-0.097,0.039-0.194,0.041-0.293c0.021-0.796,0.184-1.562,0.511-2.289c0.554-1.229,1.447-2.11,2.717-2.583&#10;&#9;&#9;&#9;c0.956-0.357,1.942-0.401,2.938-0.199c0.918,0.187,1.717,0.601,2.337,1.319c0.175,0.203,0.333,0.42,0.524,0.662&#10;&#9;&#9;&#9;c0-0.123,0-0.204,0-0.284c0-0.962,0-1.926,0-2.889c0-1.668,0-3.336-0.001-5.005c0-0.26,0.028-0.513,0.169-0.741&#10;&#9;&#9;&#9;c0.309-0.508,1.009-0.737,1.674-0.547c0.576,0.164,0.897,0.604,0.897,1.248c0.002,3.852,0.002,7.704-0.001,11.554&#10;&#9;&#9;&#9;c-0.001,0.711-0.119,1.403-0.378,2.068c-0.587,1.5-1.649,2.518-3.149,3.082c-0.857,0.322-1.749,0.426-2.662,0.385&#10;&#9;&#9;&#9;c-1.267-0.055-2.43-0.414-3.447-1.182c-1.149-0.868-1.845-2.02-2.071-3.447C112.318,26.397,112.294,26.127,112.261,25.856z&#10;&#9;&#9;&#9; M115.092,25.853c0.079,0.379,0.13,0.766,0.243,1.135c0.205,0.666,0.627,1.187,1.222,1.544c0.79,0.473,1.641,0.581,2.532,0.324&#10;&#9;&#9;&#9;c0.977-0.282,1.648-0.892,1.992-1.847c0.302-0.84,0.259-1.686-0.054-2.506c-0.252-0.662-0.706-1.167-1.347-1.5&#10;&#9;&#9;&#9;c-0.676-0.353-1.389-0.423-2.125-0.284c-0.6,0.113-1.124,0.398-1.549,0.839C115.398,24.193,115.138,24.972,115.092,25.853z"/>
      <path fill-rule="evenodd" clip-rule="evenodd" fill="#4C4747" d="M89.134,30.995c-0.183,0-0.366,0-0.548,0&#10;&#9;&#9;&#9;c-0.149-0.062-0.307-0.115-0.448-0.193c-0.505-0.283-0.626-0.754-0.625-1.289c0.004-1.435,0.01-2.869-0.004-4.304&#10;&#9;&#9;&#9;c-0.005-0.386-0.043-0.779-0.127-1.155c-0.18-0.795-0.832-1.271-1.676-1.274s-1.506,0.468-1.688,1.258&#10;&#9;&#9;&#9;c-0.092,0.399-0.129,0.818-0.135,1.229c-0.015,1.436-0.002,2.869-0.007,4.305c-0.002,0.77-0.317,1.172-1.06,1.383&#10;&#9;&#9;&#9;c-0.022,0.006-0.039,0.027-0.059,0.041c-0.182,0-0.366,0-0.549,0c-0.072-0.031-0.143-0.066-0.217-0.094&#10;&#9;&#9;&#9;c-0.41-0.16-0.688-0.441-0.808-0.869c-0.03-0.108-0.047-0.221-0.069-0.331c0-1.56,0-3.121,0-4.681&#10;&#9;&#9;&#9;c0.014-0.139,0.037-0.278,0.041-0.417c0.017-0.641,0.102-1.271,0.307-1.881c0.321-0.968,0.914-1.696,1.88-2.086&#10;&#9;&#9;&#9;c0.915-0.369,1.873-0.437,2.835-0.328c1.008,0.113,1.838,0.582,2.401,1.457c0.11,0.169,0.194,0.355,0.307,0.562&#10;&#9;&#9;&#9;c0.043-0.078,0.074-0.125,0.097-0.176c0.396-0.842,1.05-1.398,1.929-1.677c1.068-0.34,2.143-0.254,3.204,0.054&#10;&#9;&#9;&#9;c0.936,0.272,1.604,0.866,2.016,1.749c0.305,0.657,0.455,1.355,0.466,2.07c0.03,1.757,0.029,3.516,0.026,5.275&#10;&#9;&#9;&#9;c-0.001,0.721-0.34,1.135-1.033,1.328c-0.029,0.01-0.055,0.031-0.082,0.045c-0.167,0-0.332,0-0.499,0&#10;&#9;&#9;&#9;c-0.083-0.031-0.166-0.061-0.251-0.09c-0.419-0.148-0.711-0.425-0.816-0.861c-0.045-0.189-0.05-0.393-0.052-0.591&#10;&#9;&#9;&#9;c-0.012-1.624,0.012-3.25-0.04-4.874c-0.028-0.91-0.493-1.596-1.401-1.769c-0.994-0.19-1.85,0.324-2.069,1.304&#10;&#9;&#9;&#9;c-0.085,0.376-0.117,0.768-0.121,1.156c-0.014,1.425-0.012,2.851-0.003,4.277c0.004,0.571-0.19,1.019-0.714,1.286&#10;&#9;&#9;&#9;C89.413,30.899,89.27,30.942,89.134,30.995z"/>
      <path fill-rule="evenodd" clip-rule="evenodd" fill="#4C4747" d="M191.223,30.995c-0.183,0-0.366,0-0.549,0&#10;&#9;&#9;&#9;c-0.149-0.062-0.306-0.115-0.448-0.193c-0.503-0.283-0.625-0.754-0.625-1.289c0.004-1.435,0.011-2.869-0.004-4.304&#10;&#9;&#9;&#9;c-0.004-0.386-0.043-0.779-0.127-1.155c-0.18-0.795-0.832-1.271-1.675-1.274c-0.845-0.003-1.505,0.468-1.687,1.258&#10;&#9;&#9;&#9;c-0.092,0.399-0.131,0.818-0.136,1.229c-0.015,1.436-0.002,2.869-0.007,4.305c-0.003,0.77-0.318,1.172-1.061,1.383&#10;&#9;&#9;&#9;c-0.021,0.006-0.038,0.027-0.058,0.041c-0.183,0-0.365,0-0.548,0c-0.073-0.031-0.144-0.066-0.218-0.094&#10;&#9;&#9;&#9;c-0.411-0.16-0.688-0.441-0.808-0.869c-0.031-0.108-0.048-0.221-0.07-0.331c0-1.56,0-3.121,0-4.681&#10;&#9;&#9;&#9;c0.014-0.139,0.037-0.278,0.041-0.417c0.019-0.641,0.103-1.271,0.306-1.881c0.324-0.968,0.915-1.696,1.881-2.086&#10;&#9;&#9;&#9;c0.916-0.369,1.875-0.437,2.836-0.328c1.008,0.113,1.839,0.582,2.401,1.457c0.109,0.169,0.194,0.355,0.307,0.562&#10;&#9;&#9;&#9;c0.044-0.078,0.074-0.125,0.097-0.176c0.396-0.842,1.049-1.398,1.928-1.677c1.07-0.34,2.144-0.254,3.204,0.054&#10;&#9;&#9;&#9;c0.936,0.272,1.604,0.866,2.016,1.749c0.306,0.657,0.455,1.355,0.467,2.07c0.029,1.757,0.029,3.516,0.025,5.275&#10;&#9;&#9;&#9;c0,0.721-0.34,1.135-1.031,1.328c-0.029,0.01-0.056,0.031-0.084,0.045c-0.166,0-0.332,0-0.497,0&#10;&#9;&#9;&#9;c-0.084-0.031-0.167-0.061-0.252-0.09c-0.419-0.148-0.71-0.425-0.815-0.861c-0.047-0.189-0.051-0.393-0.053-0.591&#10;&#9;&#9;&#9;c-0.013-1.624,0.012-3.25-0.04-4.874c-0.028-0.91-0.493-1.596-1.401-1.769c-0.994-0.19-1.85,0.324-2.069,1.304&#10;&#9;&#9;&#9;c-0.086,0.376-0.118,0.768-0.122,1.156c-0.014,1.425-0.01,2.851-0.002,4.277c0.003,0.571-0.189,1.019-0.714,1.286&#10;&#9;&#9;&#9;C191.501,30.899,191.359,30.942,191.223,30.995z"/>
      <path fill-rule="evenodd" clip-rule="evenodd" fill="#4C4747" d="M178.998,28.176c0.801,0.001,1.46,0.642,1.459,1.415&#10;&#9;&#9;&#9;c-0.001,0.805-0.646,1.418-1.479,1.408s-1.427-0.607-1.419-1.426C177.567,28.785,178.197,28.173,178.998,28.176z"/>
    </g>
    <path id="Outline" fill="#4C4747" d="M45,25.558c-0.001-0.137-0.004-0.251-0.005-0.344c-0.004-0.185-0.005-0.281-0.005-0.281&#10;&#9;&#9;l0.001-0.037c0,0-0.006-0.104-0.018-0.306c-0.017-0.202-0.02-0.501-0.069-0.89c-0.077-0.776-0.243-1.917-0.681-3.302&#10;&#9;&#9;c-0.435-1.381-1.138-3.015-2.298-4.646c-1.151-1.628-2.751-3.26-4.813-4.543c-1.03-0.64-2.174-1.184-3.4-1.609&#10;&#9;&#9;c-1.227-0.425-2.547-0.696-3.909-0.814c-0.341-0.033-0.699-0.039-1.046-0.055c-0.166,0.001-0.333,0.002-0.501,0.003l-0.249,0.002&#10;&#9;&#9;c0,0-0.042,0-0.05,0l-0.032,0.002l-0.064,0.004l-0.133,0.007c-0.174,0.009-0.349,0.019-0.523,0.028&#10;&#9;&#9;c-0.176,0.011-0.351,0.035-0.527,0.052c-0.351,0.029-0.701,0.093-1.053,0.146c-0.701,0.131-1.405,0.29-2.095,0.515&#10;&#9;&#9;C23.181,9.59,22.843,9.726,22.5,9.85c-0.169,0.068-0.337,0.142-0.507,0.212l-0.253,0.107l-0.247,0.12&#10;&#9;&#9;c-0.669,0.308-1.315,0.674-1.942,1.074l-0.05,0.033c-0.115,0.348-0.219,0.713-0.311,1.103c0.839-0.578,1.727-1.066,2.642-1.447&#10;&#9;&#9;l0.24-0.101l0.245-0.089c0.162-0.059,0.325-0.117,0.486-0.175c0.332-0.099,0.655-0.211,0.987-0.288&#10;&#9;&#9;c0.659-0.179,1.328-0.286,1.988-0.369c0.331-0.03,0.659-0.07,0.988-0.078c0.164-0.005,0.327-0.018,0.49-0.019&#10;&#9;&#9;c0.163,0,0.326,0.002,0.488,0.002l0.122,0l0.06,0h0.031c0.013,0-0.009,0.001,0.017,0.001l0.25,0.014&#10;&#9;&#9;c0.168,0.01,0.334,0.019,0.501,0.029c0.314,0.037,0.617,0.06,0.929,0.109c1.244,0.189,2.427,0.512,3.51,0.966&#10;&#9;&#9;c1.084,0.451,2.068,1.02,2.944,1.651c1.752,1.271,3.04,2.805,3.927,4.284c0.896,1.481,1.386,2.913,1.664,4.102&#10;&#9;&#9;c0.281,1.192,0.347,2.153,0.362,2.803c0.019,0.325,0.001,0.575,0.002,0.744c-0.002,0.168-0.004,0.254-0.004,0.254v-0.037&#10;&#9;&#9;c0,0-0.006,0.095-0.018,0.28c-0.007,0.092-0.015,0.208-0.023,0.343c-0.006,0.065-0.007,0.148-0.018,0.215&#10;&#9;&#9;c-0.008,0.066-0.018,0.139-0.027,0.215c-0.023,0.154-0.037,0.317-0.072,0.512c-0.034,0.195-0.073,0.408-0.114,0.639&#10;&#9;&#9;c-0.051,0.229-0.105,0.473-0.163,0.733c-0.069,0.258-0.127,0.536-0.219,0.821c-0.149,0.58-0.391,1.199-0.663,1.865&#10;&#9;&#9;c-0.278,0.666-0.64,1.361-1.089,2.066c-0.892,1.412-2.193,2.84-3.906,3.996c-0.858,0.572-1.815,1.072-2.852,1.475&#10;&#9;&#9;c-0.259,0.102-0.527,0.186-0.793,0.278c-0.273,0.073-0.543,0.169-0.824,0.229c-0.14,0.035-0.279,0.069-0.42,0.104&#10;&#9;&#9;c-0.141,0.035-0.284,0.059-0.428,0.088c-0.285,0.063-0.577,0.102-0.87,0.145c-0.294,0.043-0.593,0.061-0.893,0.091&#10;&#9;&#9;c-0.15,0.007-0.302,0.013-0.453,0.021l-0.228,0.01c-0.043,0,0.027,0.001,0.007,0.001h-0.031H27.9h-0.125c-0.169,0-0.338,0-0.508,0&#10;&#9;&#9;c-0.164-0.003-0.296-0.014-0.446-0.021c-0.288-0.006-0.605-0.045-0.915-0.074c-0.622-0.081-1.249-0.184-1.868-0.353&#10;&#9;&#9;c-0.313-0.071-0.619-0.177-0.931-0.269c-0.151-0.055-0.305-0.111-0.458-0.166l-0.23-0.084l-0.227-0.094&#10;&#9;&#9;c-2.433-0.977-4.692-2.708-6.333-4.994c-0.412-0.57-0.774-1.18-1.105-1.807c-0.331-0.631-0.602-1.295-0.84-1.971&#10;&#9;&#9;c-0.236-0.68-0.408-1.381-0.546-2.092c-0.059-0.357-0.121-0.715-0.153-1.077c-0.021-0.181-0.043-0.362-0.05-0.544l-0.033-0.527&#10;&#9;&#9;c-0.017-0.789,0.001-1.467,0.079-2.207c0.085-0.727,0.209-1.451,0.392-2.163c0.106-0.408,0.231-0.811,0.368-1.211&#10;&#9;&#9;c-0.308,0.124-0.616,0.248-0.954,0.357c-0.098,0.032-0.193,0.048-0.29,0.075c-0.06,0.154-0.125,0.304-0.181,0.46&#10;&#9;&#9;c-0.265,0.744-0.451,1.516-0.606,2.295c-0.144,0.771-0.22,1.62-0.256,2.358l-0.005,0.618c-0.005,0.199,0.005,0.4,0.015,0.6&#10;&#9;&#9;c0.01,0.401,0.051,0.801,0.09,1.199c0.1,0.797,0.24,1.59,0.452,2.367c0.215,0.774,0.471,1.539,0.794,2.275&#10;&#9;&#9;c0.326,0.734,0.692,1.453,1.118,2.133c1.687,2.732,4.178,4.914,6.983,6.246l0.263,0.125l0.268,0.113&#10;&#9;&#9;c0.179,0.075,0.356,0.152,0.535,0.224c0.362,0.131,0.722,0.272,1.089,0.378c0.729,0.236,1.473,0.4,2.212,0.532&#10;&#9;&#9;c0.374,0.056,0.735,0.12,1.129,0.149c0.188,0.018,0.395,0.041,0.568,0.051c0.17,0.01,0.338,0.018,0.507,0.026l0.126,0.007&#10;&#9;&#9;l0.062,0.002l0.032,0.002h0.071l0.273-0.002c0.184-0.002,0.366-0.004,0.548-0.006c0.362-0.023,0.725-0.034,1.084-0.074&#10;&#9;&#9;c2.875-0.262,5.485-1.327,7.576-2.721c2.101-1.399,3.688-3.137,4.835-4.832c1.153-1.701,1.827-3.393,2.209-4.814&#10;&#9;&#9;c0.106-0.354,0.161-0.701,0.234-1.021c0.064-0.321,0.097-0.629,0.14-0.911c0.031-0.284,0.051-0.549,0.07-0.789&#10;&#9;&#9;c0.02-0.242,0.021-0.479,0.029-0.682c0.004-0.102,0.008-0.198,0.01-0.289C45.005,25.692,45,25.628,45,25.558z"/>
    <path id="Leaves" fill-rule="evenodd" clip-rule="evenodd" fill="#57A63C" d="M17.979,13.429c0.325-2.291,1.188-4.005,1.819-5.257&#10;&#9;&#9;c0.13-0.257,0.25-0.497,0.354-0.718c-1.329,0.956-2.665,1.963-3.473,3.352c-0.167,0.287-0.439,0.669-0.866,0.669&#10;&#9;&#9;c-0.519,0-0.709-0.521-0.78-0.716c-0.141-0.308-0.28-0.588-0.421-0.868c-0.367-0.733-0.744-1.485-0.978-2.307&#10;&#9;&#9;C13.07,9,13.082,9.784,13.524,11.658c0.116,0.492,0.225,1.202-0.166,1.695c-0.322,0.406-0.852,0.552-1.694,0.422&#10;&#9;&#9;c-0.954-0.147-2.166-0.379-3.341-0.889c0.834,1.278,2.024,2.191,3.471,2.656c0.31,0.099,0.682,0.262,0.81,0.645&#10;&#9;&#9;c0.128,0.385-0.081,0.75-0.277,1.026c-0.617,0.866-1.468,1.329-2.291,1.776c-0.084,0.046-0.168,0.092-0.253,0.138&#10;&#9;&#9;c0.928-0.013,1.917-0.062,2.926-0.389C15.882,17.708,17.508,16.071,17.979,13.429z"/>
  </g>
</svg>