<?xml version="1.0" encoding="utf-8"?>
<svg viewBox="0 0 500 500" xmlns="http://www.w3.org/2000/svg">
  <ellipse id="Ground_Shadow" fill="#D0D2D3" cx="319.623" cy="469.023" rx="151.098" ry="20.585"/>
  <path id="Tomato" fill="#EA402B" d="M 272.464 30.14 C 227.603 30.14 185.999 44.261 151.604 68.316 C 149.479 75.714 147.596 83.523 146.385 92.222 C 139.404 132.197 115.378 158.159 71.368 174.037 C 63.052 197.352 58.278 222.409 58.278 248.662 C 58.278 369.352 154.173 467.181 272.464 467.181 C 390.754 467.181 486.661 369.352 486.661 248.662 C 486.661 127.971 390.754 30.14 272.464 30.14 Z"/>
  <path id="Highlight" fill="#FFFFFF" d="M 332.214 75.111 C 294.94 63.158 258.621 62.815 228.303 74.37 C 223.945 76.043 221.646 80.119 222.464 84.772 C 223.339 89.725 227.361 93.32 232.015 93.32 C 232.028 93.32 232.028 93.32 232.028 93.32 C 233.199 93.32 234.396 93.087 235.566 92.649 C 261.379 82.808 293.177 83.193 325.272 93.499 C 326.295 93.827 327.331 93.992 328.352 93.992 C 333.949 93.992 337.675 89.341 338.334 84.949 C 339.032 80.38 336.612 76.51 332.214 75.111 Z"/>
  <path id="Shadow" fill="#D0D2D3" d="M 455.602 130.632 C 492.404 314.984 276.821 462.309 146.937 420.937 C 155.505 427.237 164.624 432.972 174.297 438.063 C 279.444 493.324 408.616 451.167 462.799 343.884 C 498.149 273.843 492.782 193.427 455.602 130.632 Z"/>
  <g id="Needle" transform="matrix(13.451248, 0, 0, 13.722728, -108.736259, -94.247154)">
    <path id="Shadow_1_" fill="#D0D2D3" d="M31.067,28.597c-1.17,1.17-3.07,1.17-4.243-0.002s-1.173-3.072-0.001-4.245&#10;&#9;&#9;&#9;c1.174-1.172,9.121-4.876,9.121-4.876S32.241,27.423,31.067,28.597z"/>
    <path id="Needle_1_" fill="#FFFFFF" d="M30.067,27.597c-1.17,1.17-3.07,1.17-4.243-0.002s-1.173-3.073-0.001-4.245&#10;&#9;&#9;&#9;c1.174-1.172,9.121-4.876,9.121-4.876S31.241,26.423,30.067,27.597z"/>
    <circle id="Center" fill="#EA402B" cx="28.34" cy="24.988" r="1.5"/>
  </g>
  <path id="Outline" fill="#4C4747" d="M 496.574 256.484 C 496.56 254.604 496.52 253.038 496.507 251.763 C 496.454 249.224 496.44 247.907 496.44 247.907 L 496.454 247.399 C 496.454 247.399 496.372 245.971 496.212 243.201 C 495.983 240.427 495.942 236.325 495.283 230.986 C 494.247 220.338 492.015 204.681 486.123 185.676 C 480.271 166.724 470.816 144.3 455.212 121.919 C 439.73 99.577 418.207 77.182 390.472 59.576 C 376.615 50.795 361.227 43.33 344.737 37.497 C 328.232 31.665 310.476 27.946 292.155 26.327 C 287.569 25.872 282.754 25.792 278.085 25.571 C 275.854 25.584 273.606 25.599 271.346 25.614 L 267.997 25.64 C 267.997 25.64 267.432 25.64 267.324 25.64 L 266.894 25.668 L 266.033 25.724 L 264.245 25.819 C 261.903 25.941 259.551 26.079 257.21 26.202 C 254.842 26.353 252.488 26.683 250.12 26.915 C 245.399 27.313 240.691 28.192 235.956 28.92 C 226.528 30.717 217.057 32.899 207.776 35.987 C 203.082 37.36 198.534 39.224 193.921 40.928 C 191.648 41.86 189.388 42.876 187.101 43.838 L 183.698 45.304 L 180.375 46.95 C 171.378 51.178 162.686 56.2 154.254 61.689 L 153.581 62.143 C 152.035 66.918 150.637 71.926 149.398 77.279 C 160.683 69.347 172.629 62.65 184.937 57.422 L 188.164 56.035 L 191.46 54.814 C 193.638 54.005 195.833 53.21 197.996 52.414 C 202.464 51.054 206.808 49.517 211.272 48.46 C 220.139 46.004 229.137 44.536 238.013 43.396 C 242.466 42.986 246.88 42.437 251.304 42.327 C 253.51 42.257 255.702 42.079 257.896 42.066 C 260.087 42.066 262.28 42.093 264.459 42.093 L 266.099 42.093 L 266.908 42.093 L 267.324 42.093 C 267.5 42.093 267.203 42.105 267.554 42.105 L 270.917 42.3 C 273.176 42.437 275.409 42.56 277.655 42.697 C 281.879 43.205 285.954 43.519 290.151 44.192 C 306.886 46.787 322.797 51.219 337.365 57.45 C 351.948 63.638 365.183 71.446 376.966 80.105 C 400.533 97.547 417.858 118.597 429.791 138.895 C 441.841 159.218 448.432 178.867 452.17 195.185 C 455.951 211.541 456.838 224.729 457.04 233.649 C 457.298 238.109 457.055 241.539 457.068 243.858 C 457.04 246.164 457.014 247.344 457.014 247.344 L 457.014 246.836 C 457.014 246.836 456.933 248.141 456.772 250.68 C 456.678 251.942 456.569 253.534 456.463 255.384 C 456.382 256.277 456.369 257.416 456.222 258.336 C 456.112 259.242 455.978 260.243 455.857 261.287 C 455.548 263.399 455.36 265.636 454.889 268.312 C 454.431 270.987 453.907 273.911 453.356 277.082 C 452.67 280.224 451.943 283.573 451.164 287.14 C 450.236 290.681 449.456 294.496 448.217 298.407 C 446.214 306.366 442.957 314.86 439.3 323.999 C 435.559 333.138 430.69 342.675 424.651 352.351 C 412.653 371.726 395.152 391.324 372.109 407.186 C 360.569 415.037 347.695 421.897 333.747 427.428 C 330.265 428.827 326.658 429.981 323.08 431.242 C 319.407 432.245 315.776 433.561 311.997 434.384 C 310.113 434.864 308.243 435.332 306.347 435.812 C 304.451 436.292 302.526 436.622 300.59 437.018 C 296.756 437.884 292.828 438.421 288.888 439.009 C 284.933 439.599 280.912 439.847 276.874 440.259 C 274.858 440.354 272.813 440.437 270.782 440.548 L 267.716 440.684 C 267.137 440.684 268.077 440.697 267.809 440.697 L 267.393 440.697 L 266.559 440.697 L 264.876 440.697 C 262.603 440.697 260.331 440.697 258.044 440.697 C 255.837 440.657 254.061 440.504 252.045 440.408 C 248.169 440.328 243.906 439.792 239.737 439.394 C 231.37 438.281 222.935 436.869 214.609 434.551 C 210.4 433.576 206.284 432.121 202.085 430.858 C 200.054 430.103 197.984 429.335 195.924 428.58 L 192.831 427.428 L 189.778 426.138 C 157.051 412.73 126.666 388.976 104.592 357.606 C 99.051 349.785 94.18 341.414 89.728 332.809 C 85.276 324.15 81.629 315.039 78.429 305.762 C 75.255 296.43 72.94 286.813 71.085 277.054 C 70.292 272.155 69.457 267.242 69.026 262.275 C 68.744 259.79 68.449 257.307 68.354 254.809 L 67.911 247.578 C 67.682 236.75 67.924 227.447 68.973 217.291 C 70.115 207.314 71.783 197.379 74.244 187.61 C 75.673 182.01 77.353 176.48 79.197 170.991 C 75.054 172.692 70.911 174.394 66.364 175.89 C 65.045 176.329 63.767 176.548 62.464 176.918 C 61.655 179.032 60.78 181.089 60.028 183.231 C 56.464 193.441 53.961 204.036 51.876 214.726 C 49.938 225.306 48.917 236.956 48.432 247.083 L 48.365 255.563 C 48.298 258.294 48.432 261.052 48.567 263.797 C 48.701 269.301 49.254 274.791 49.778 280.251 C 51.124 291.189 53.005 302.071 55.859 312.733 C 58.75 323.355 62.194 333.852 66.538 343.953 C 70.924 354.026 75.846 363.891 81.576 373.223 C 104.269 410.714 137.775 440.657 175.506 458.935 L 179.045 460.651 L 182.649 462.201 C 185.058 463.23 187.438 464.287 189.847 465.275 C 194.714 467.073 199.558 469.008 204.493 470.463 C 214.3 473.701 224.308 475.95 234.249 477.763 C 239.279 478.53 244.134 479.409 249.435 479.808 C 251.963 480.054 254.747 480.37 257.074 480.508 C 259.361 480.643 261.622 480.752 263.896 480.863 L 265.59 480.961 L 266.423 480.988 L 266.854 481.016 L 267.809 481.016 L 271.48 480.988 C 273.956 480.961 276.404 480.931 278.853 480.905 C 283.722 480.589 288.604 480.438 293.433 479.889 C 332.106 476.294 367.213 461.68 395.34 442.55 C 423.601 423.351 444.948 399.503 460.378 376.243 C 475.887 352.899 484.953 329.679 490.091 310.182 C 491.517 305.324 492.257 300.56 493.238 296.17 C 494.099 291.765 494.542 287.539 495.121 283.67 C 495.539 279.772 495.808 276.134 496.063 272.842 C 496.333 269.52 496.346 266.269 496.454 263.483 C 496.507 262.082 496.56 260.764 496.587 259.517 C 496.641 258.322 496.574 257.444 496.574 256.484 Z"/>
  <path id="Leaves" fill-rule="evenodd" clip-rule="evenodd" fill="#57A63C" d="M 133.107 90.04 C 137.48 58.601 149.089 35.081 157.576 17.9 C 159.325 14.372 160.94 11.079 162.337 8.047 C 144.46 21.167 126.489 34.986 115.622 54.044 C 113.375 57.983 109.716 63.226 103.973 63.226 C 96.991 63.226 94.436 56.076 93.482 53.4 C 91.584 49.172 89.715 45.332 87.819 41.49 C 82.883 31.431 77.811 21.111 74.663 9.832 C 67.076 29.263 67.237 40.021 73.183 65.739 C 74.744 72.489 76.21 82.233 70.95 88.998 C 66.619 94.569 59.489 96.572 48.163 94.789 C 35.332 92.772 19.028 89.587 3.223 82.588 C 14.442 100.127 30.448 112.656 49.912 119.036 C 54.083 120.396 59.086 122.632 60.809 127.887 C 62.529 133.172 59.718 138.18 57.083 141.967 C 48.782 153.85 37.335 160.205 26.264 166.339 C 25.135 166.969 24.004 167.6 22.861 168.232 C 35.345 168.055 48.648 167.381 62.219 162.896 C 104.901 148.761 126.772 126.296 133.107 90.04 Z"/>
</svg>